<?xml version="1.0" standalone="no"?><!DOCTYPE svg PUBLIC "-//W3C//DTD SVG 1.1//EN" "http://www.w3.org/Graphics/SVG/1.1/DTD/svg11.dtd"><svg t="1763100072791" class="icon" viewBox="0 0 1024 1024" version="1.1" xmlns="http://www.w3.org/2000/svg" p-id="9138" xmlns:xlink="http://www.w3.org/1999/xlink" width="200" height="200"><path d="M628.568747 948.906667c-13.653333 6.826667-20.48 6.826667-27.306667 6.826666-6.826667 0-20.48 0-27.306667-6.826666-6.826667-6.826667-13.653333-13.653333-13.653333-27.306667-6.826667-20.48 6.826667-40.96 27.306667-47.786667 6.826667 0 13.653333 0 20.48-6.826666 20.48-6.826667 40.96 6.826667 47.786666 27.306666 6.826667 27.306667-6.826667 47.786667-27.306666 54.613334z m314.026666-566.613334c-13.653333 6.826667-27.306667 0-34.133333-6.826666-6.826667-6.826667-13.653333-13.653333-13.653333-20.48 0-6.826667-6.826667-13.653333-6.826667-20.48-6.826667-20.48 0-40.96 20.48-47.786667 20.48-6.826667 40.96 0 47.786667 20.48 6.826667 6.826667 6.826667 20.48 6.826666 27.306667 6.826667 20.48 0 40.96-20.48 47.786666zM778.755413 887.466667c-6.826667 6.826667-13.653333 13.653333-27.306666 13.653333-13.653333 6.826667-27.306667 6.826667-40.96 0-6.826667 0-6.826667-6.826667-13.653334-13.653333-13.653333-20.48-6.826667-40.96 13.653334-54.613334 6.826667-6.826667 13.653333-6.826667 20.48-13.653333 20.48-13.653333 40.96-6.826667 54.613333 13.653333 13.653333 13.653333 6.826667 40.96-6.826667 54.613334z m170.666667-354.986667c-6.826667 0-13.653333 0-20.48-6.826667-13.653333-6.826667-13.653333-20.48-13.653333-34.133333v-27.306667c0-20.48 13.653333-40.96 34.133333-40.96s40.96 13.653333 40.96 34.133334v27.306666c0 27.306667-20.48 47.786667-40.96 47.786667z m-54.613333 238.933333l-20.48 20.48c-13.653333 13.653333-34.133333 20.48-47.786667 6.826667-13.653333-13.653333-20.48-40.96-6.826667-54.613333 6.826667-6.826667 13.653333-13.653333 13.653334-20.48 13.653333-13.653333 34.133333-20.48 54.613333-6.826667 13.653333 13.653333 20.48 40.96 6.826667 54.613333z m75.093333-143.36l-6.826667 27.306667c-6.826667 20.48-27.306667 27.306667-47.786666 20.48 0 0-6.826667 0-6.826667-6.826667-13.653333-6.826667-20.48-27.306667-13.653333-47.786666 0-6.826667 6.826667-13.653333 6.826666-20.48 6.826667-20.48 27.306667-34.133333 47.786667-27.306667 13.653333 13.653333 27.306667 34.133333 20.48 54.613333z m-122.88-430.08l-129.706667 13.653334c-13.653333 0-20.48-6.826667-13.653333-20.48l27.306667-40.96C594.435413 54.613333 410.115413 61.44 280.408747 157.013333c-34.133333 27.306667-68.266667 61.44-95.573334 95.573334C55.128747 430.08 102.915413 682.666667 280.408747 812.373333c13.653333 6.826667 27.306667 20.48 40.96 27.306667 6.826667 6.826667 13.653333 6.826667 20.48 13.653333 34.133333 13.653333 68.266667 20.48 102.4 27.306667 20.48 6.826667 34.133333 20.48 34.133333 47.786667-6.826667 20.48-20.48 34.133333-47.786667 34.133333-68.266667-13.653333-136.533333-40.96-191.146666-81.92-20.48-13.653333-40.96-34.133333-61.44-54.613333-68.266667-68.266667-116.053333-157.013333-136.533334-259.413334 0-6.826667 0-20.48-6.826666-27.306666v-27.306667C27.82208 409.6 55.128747 314.026667 109.74208 232.106667c0-6.826667 6.826667-6.826667 6.826667-13.653334l6.826666-6.826666C191.66208 122.88 280.408747 61.44 382.808747 34.133333c13.653333 0 27.306667-6.826667 34.133333-6.826666 122.88-20.48 245.76 6.826667 348.16 75.093333l27.306667-40.96c6.826667-13.653333 20.48-13.653333 20.48 6.826667l34.133333 129.706666c20.48-13.653333 13.653333 0 0 0zM785.58208 648.533333c-6.826667 13.653333-13.653333 13.653333-27.306667 13.653334-6.826667 0-6.826667 0-13.653333-6.826667L457.90208 512V204.8c0-20.48 13.653333-34.133333 34.133333-34.133333s34.133333 13.653333 34.133334 34.133333v273.066667l252.586666 129.706666c6.826667 6.826667 13.653333 27.306667 6.826667 40.96z" fill="#0071CF" p-id="9139"></path></svg>