<?xml version="1.0" standalone="no"?><!DOCTYPE svg PUBLIC "-//W3C//DTD SVG 1.1//EN" "http://www.w3.org/Graphics/SVG/1.1/DTD/svg11.dtd"><svg t="1763100293264" class="icon" viewBox="0 0 1024 1024" version="1.1" xmlns="http://www.w3.org/2000/svg" p-id="20774" xmlns:xlink="http://www.w3.org/1999/xlink" width="200" height="200"><path d="M418.967373 54.032619a107.574033 107.574033 0 0 0 40.115127 146.051807A106.919092 106.919092 0 0 0 570.258707 17.355932L565.674121 14.736169a106.755357 106.755357 0 0 0-146.051807 37.986568v1.309882zM980.579142 818.676047a106.755357 106.755357 0 1 0-195.008635-28.162456 105.445475 105.445475 0 0 0 49.120563 65.494084A106.755357 106.755357 0 0 0 980.579142 818.676047z m-130.988168-235.942437a184.202111 184.202111 0 0 1 80.230253 0V301.927726L688.475528 163.735209a177.325232 177.325232 0 0 1-40.115126 69.7512l200.575631 114.614646v233.813879zM42.703862 709.464663a106.591621 106.591621 0 0 0 38.96898 145.888071 106.591621 106.591621 0 0 0 145.724336-38.96898A106.919092 106.919092 0 1 0 42.703862 709.464663z m135.572753-126.731053V348.428526l196.482252-114.614647A186.985609 186.985609 0 0 1 334.64374 163.735209L98.046363 301.927726v280.805884a184.202111 184.202111 0 0 1 80.230252 0zM709.2699 817.038695l-197.300928 114.614647-196.482251-114.614647a194.189958 194.189958 0 0 1-16.373521 40.933803 186.494404 186.494404 0 0 1-20.958107 29.636073l235.942437 136.391429L748.730085 887.608571a189.277902 189.277902 0 0 1-40.115126-70.569876z" fill="#0066CC" p-id="20775"></path></svg>