<?xml version="1.0" standalone="no"?><!DOCTYPE svg PUBLIC "-//W3C//DTD SVG 1.1//EN" "http://www.w3.org/Graphics/SVG/1.1/DTD/svg11.dtd"><svg t="1779511934793" class="icon" viewBox="0 0 1024 1024" version="1.1" xmlns="http://www.w3.org/2000/svg" p-id="6992" xmlns:xlink="http://www.w3.org/1999/xlink" width="200" height="200"><path d="M512 137.152c206.656 0 374.784 168.128 374.784 374.848S718.656 886.784 512 886.784 137.216 718.656 137.216 512 305.344 137.152 512 137.152m0-64a438.848 438.848 0 1 0 0.128 877.696A438.848 438.848 0 0 0 512 73.152z" fill="#231815" p-id="6993"></path><path d="M512 137.28C539.328 145.408 609.152 270.464 609.152 512c0 243.264-70.784 368.384-96.512 374.848-26.944-6.464-97.792-131.584-97.792-374.848 0-241.536 69.824-366.592 97.152-374.72m0-64.128c-89.024 0-161.152 196.48-161.152 438.848 0 242.304 72.128 438.784 161.152 438.784s161.152-196.48 161.152-438.784c0-242.368-72.128-438.848-161.152-438.848z" fill="#231815" p-id="6994"></path><path d="M512 414.848c243.264 0 368.384 70.784 374.848 96.512-6.464 26.944-131.584 97.792-374.848 97.792-243.328 0-368.384-70.784-374.912-96.512C143.616 485.696 268.672 414.848 512 414.848m0-64C269.632 350.848 73.152 422.976 73.152 512S269.632 673.152 512 673.152c242.304 0 438.784-72.128 438.784-161.152S754.304 350.848 512 350.848z" fill="#231815" p-id="6995"></path></svg>