<?xml version="1.0" standalone="no"?><!DOCTYPE svg PUBLIC "-//W3C//DTD SVG 1.1//EN" "http://www.w3.org/Graphics/SVG/1.1/DTD/svg11.dtd"><svg t="1762569256217" class="icon" viewBox="0 0 1024 1024" version="1.1" xmlns="http://www.w3.org/2000/svg" p-id="12121" xmlns:xlink="http://www.w3.org/1999/xlink" width="200" height="200"><path d="M866.91 837.818H203.635a110.639 110.639 0 0 1-110.545-111.01V297.145a110.639 110.639 0 0 1 110.545-110.964H866.91a110.825 110.825 0 0 1 110.546 110.964v429.661a110.825 110.825 0 0 1-110.546 111.011z m51.571-540.625a51.712 51.712 0 0 0-51.572-51.712H203.636a51.712 51.712 0 0 0-51.572 51.712v429.66a51.665 51.665 0 0 0 51.572 51.713H866.91a51.665 51.665 0 0 0 51.572-51.712V297.193z m-367.29 340.526a29.37 29.37 0 0 1-31.883 0L207.825 436.084a29.603 29.603 0 0 1 31.93-49.803l295.518 191.348 295.424-191.348a29.556 29.556 0 0 1 31.883 49.803z" fill="#E16C2B" p-id="12122"></path></svg>