<?xml version="1.0" standalone="no"?><!DOCTYPE svg PUBLIC "-//W3C//DTD SVG 1.1//EN" "http://www.w3.org/Graphics/SVG/1.1/DTD/svg11.dtd"><svg t="1763452857460" class="icon" viewBox="0 0 1026 1024" version="1.1" xmlns="http://www.w3.org/2000/svg" p-id="35712" xmlns:xlink="http://www.w3.org/1999/xlink" width="200.390625" height="200"><path d="M854.99 877.12h68.556a5.811 5.811 0 0 1 4.327 1.818c1.126 1.126 1.817 10.38 1.817 12.019v0.166c0 1.639-0.601 10.893-1.817 12.02a6.157 6.157 0 0 1-4.327 1.817H854.99a5.798 5.798 0 0 1-4.326-1.818c-1.126-1.126-1.818-10.38-1.818-12.019v-0.243c0-1.638 0.615-10.893 1.818-12.02a6.067 6.067 0 0 1 4.326-1.727z m-800.769 0h727.552a5.811 5.811 0 0 1 4.327 1.818c1.126 1.126 1.817 10.38 1.817 12.019v0.166c0 1.639-0.601 10.893-1.817 12.02a6.157 6.157 0 0 1-4.327 1.817H54.221c-3.379 0-6.144-10.458-6.144-13.837v-0.243c0-3.366 2.765-13.747 6.144-13.747z m947.93-444.62a20.403 20.403 0 1 1-20.48 20.402 20.48 20.48 0 0 1 20.48-20.403z m0 0" fill="#CECECE" p-id="35713"></path><path d="M1002.15 477.274a24.32 24.32 0 1 1 24.462-24.32 24.422 24.422 0 0 1-24.461 24.32z m0-40.807a16.422 16.422 0 1 0 16.513 16.423 16.486 16.486 0 0 0-16.512-16.41zM258.51 192.666H248.14v-10.381a11.891 11.891 0 0 0-23.782 0v10.38h-10.38a11.84 11.84 0 1 0 0 23.693h10.38v10.368a11.891 11.891 0 0 0 23.782 0V216.32h10.368a11.84 11.84 0 1 0 0-23.693zM37.35 450.726a18.675 18.675 0 1 1-18.675-18.675 18.7 18.7 0 0 1 18.675 18.675z m578.611-14.566h-384c-33.497 0-60.633 27.43-60.633 61.26v245.108c0 33.83 27.136 61.26 60.633 61.26h40.576l0.295 44.353c5.824 25.37 34.457 55.77 82.406 23.833l75.789-68.134h184.934c33.472 0 60.634-27.43 60.634-61.26V497.433c0-33.844-27.175-61.261-60.634-61.261z m20.224 284.66a40.666 40.666 0 0 1-40.422 40.87h-132.02l-47.36 0.153-86.783 79.36c-18.228 11.597-16.884-17.651-16.884-17.651v-30.72c0.461-13.235-0.345-31.078-0.345-31.078s-11.827-0.23-18.048-0.077h-42.138a40.666 40.666 0 0 1-40.422-40.87V517.21a40.653 40.653 0 0 1 40.422-40.845h343.565a40.64 40.64 0 0 1 40.435 40.845v203.61z m121.255-427.7H393.626c-33.497 0-60.633 27.43-60.633 61.26v40.871h40.422v-20.48a40.627 40.627 0 0 1 40.422-40.857H737.23a40.64 40.64 0 0 1 40.423 40.857v203.085a40.653 40.653 0 0 1-40.423 40.858h-20.224v40.857h40.423c33.472 0 60.633-27.43 60.633-61.26V354.444c0-33.83-27.136-61.261-60.62-61.261zM535.066 558.694H312.781a20.48 20.48 0 0 0 0 40.858h222.285a20.48 20.48 0 0 0 0-40.858z m-40.422 81.716H312.78a20.48 20.48 0 0 0 0 40.857h181.914a20.48 20.48 0 0 0 0-40.857zM785.6 204.902c-18.842 0-35.674-9.37-42.496-25.945a46.502 46.502 0 0 1 0-49.575c9.305-14.259 25.894-25.945 42.508-25.945 28.301 0 49.639 21.222 49.639 49.574s-23.578 51.891-49.639 51.891z m0-25.945a25.152 25.152 0 0 0 21.26-11.776c4.8-7.117 4.8-16.576 0-25.946a24.82 24.82 0 0 0-21.26-11.776 26.112 26.112 0 0 0-25.984 25.869c0 11.853 11.788 23.629 25.984 23.629z m0 0" fill="#CECECE" p-id="35714"></path></svg>