<?xml version="1.0" standalone="no"?><!DOCTYPE svg PUBLIC "-//W3C//DTD SVG 1.1//EN" "http://www.w3.org/Graphics/SVG/1.1/DTD/svg11.dtd"><svg t="1766503142234" class="icon" viewBox="0 0 1307 1024" version="1.1" xmlns="http://www.w3.org/2000/svg" p-id="10611" xmlns:xlink="http://www.w3.org/1999/xlink" width="255.2734375" height="200"><path d="M625.458444 27.774108h96.845179l161.40863 40.352157q129.126905 60.528237 213.866436 165.443847 66.177539 78.283186 96.845179 193.690357l16.140863 80.704315v121.056473l-40.352158 153.3382q-40.352158 88.774747-104.91561 153.338199 24.211295 8.070432 16.140863 48.422589l-12.105647 12.105647h-952.310922q-20.176079-8.070432-12.105647-44.387373l12.105647-12.105647 157.373415-4.035216q-80.704315-80.704315-121.056473-201.760789l-24.211294-121.056473v-88.774747l8.070431-8.070431 8.070432-88.774747 24.211294-48.422589-161.40863-161.408631-8.070432-48.422589L36.316942 132.689718h40.352158l242.112946 242.112946 64.563452 8.070431q43.58033-12.91269 36.316942-76.669099l-153.338199-161.408631-16.140863-48.422589L286.50032 51.985402h40.352157l64.563453 56.493021 112.986041-56.493021 121.056473-24.211294zM685.986681 221.464465l-88.774747 40.352157-56.493021 80.704316-8.070431 8.070431h-72.633884l-24.211295 32.281726v201.760789l-88.774747 56.493021 24.211295 24.211294 64.563452-24.211294v112.986041l8.070432 16.140863q24.211295 16.140863 80.704315 8.070432l-8.070432 80.704315-48.422589 8.070432v40.352157h80.704316l16.140863-24.211294 8.070431-96.845179h153.338199l8.070432 8.070432h48.422589v64.563452q-48.422589-8.070432-64.563452 24.211295l24.211295 24.211294q48.422589 8.070432 80.704315-8.070431l8.070431-8.070432V794.465104q64.563452 8.070432 88.774747-8.070432l8.070432-24.211294V641.126905l48.422589 16.140863 16.140863-8.070432 8.070432-24.211294-16.140863-24.211295-40.352158-8.070432-16.140863-8.070431V374.802664l-16.140863-24.211295v-16.140863h-96.845179l-8.070431-32.281726q-40.352158-64.563452-121.056473-80.704315z" fill="#BED8FE" opacity=".965" p-id="10612"></path><path d="M681.951465 245.675759l40.352158 8.070432 60.528236 52.457805 16.140863 24.211294-84.739531 4.035216-8.070431 8.070432h-137.197337l4.035216-12.105648 60.528237-68.598668 48.422589-16.140863zM1113.719552 939.732872h181.58471l4.035216 12.105647 8.070431 24.211294-20.176079 20.176079h-161.40863q-24.211295-4.035216-20.176079-36.316942l8.070431-20.176078z" fill="#BED8FE" opacity=".965" p-id="10613"></path><path d="M706.16276 229.534896l36.316942 12.105647-12.105648 4.035216-24.211294-8.070431v-8.070432zM617.388013 245.675759l-8.070432 16.140863 8.070432-16.140863zM657.74017 245.675759l20.176079 4.035216-20.176079 4.035216v-8.070432zM690.021897 245.675759l28.24651 4.035216-28.24651 4.035216v-8.070432zM754.585349 245.675759l8.070431 16.140863-8.070431-16.140863zM730.374054 253.746191l52.457805 44.387373-36.316942-28.24651-16.140863-16.140863zM593.176718 261.816622l-8.070431 16.140863 8.070431-16.140863zM625.458444 261.816622l-48.422589 56.493021 48.422589-56.493021zM778.796643 269.887054l36.316942 52.457805h-8.070431L778.796643 269.887054zM577.035855 286.027917L556.859776 314.274427 536.683697 350.591369l4.035216-12.105647 36.316942-52.457805zM714.233191 334.450506l92.809963 4.035216-92.809963 4.035216v-8.070432zM560.894992 342.520938l76.6691 4.035215-76.6691 4.035216v-8.070431zM455.979382 350.591369l12.105647 4.035216-20.176079 12.105647 8.070432-16.140863zM924.064411 366.732232l4.035216 213.866436 8.070431 8.070432-16.140863-8.070432 4.035216-213.866436zM439.838519 374.802664l4.035216 205.796004-24.211295 16.140863 16.140863-16.140863 4.035216-205.796004zM964.416569 600.774747q32.281726-4.035216 36.316942 20.176079l-4.035216 20.176079-16.140863-32.281727q-24.211295 4.035216-16.140863-8.070431zM920.029195 633.056473l16.140863 4.035216-8.070431 8.070431-4.035216 117.021258-4.035216-129.126905zM439.838519 641.126905l4.035216 108.950825h-8.070432l4.035216-108.950825zM367.204635 657.267768l20.176079 4.035215-20.176079 4.035216v-8.070431zM577.035855 778.324241l44.387373 4.035216-48.422589 4.035215-4.035216 40.352158-4.035215-36.316942 12.105647-12.105647zM730.374054 786.394672q48.422589-12.105647 60.528237 12.105648l-4.035216 20.176078-4.035216-24.211294h-52.457805v-8.070432zM520.542834 818.676398l4.035216 36.316942q-5.649302 18.561993-36.316942 12.105648v-8.070432H516.507618l4.035216-40.352158zM786.867075 834.817262l4.035216 20.176078-20.176079 12.105648v-8.070432q23.404251 5.649302 16.140863-24.211294zM560.894992 850.958125l4.035216 28.24651h-8.070432l4.035216-28.24651zM827.219233 875.169419l4.035215 12.105648-16.140863 8.070431 12.105648-20.176079zM472.120245 891.310282l8.070432 16.140863q-22.597208 5.649302-8.070432-16.140863zM552.82456 891.310282l-8.070431 16.140863-12.105647-4.035215 20.176078-12.105648z" fill="#96C0FE" opacity=".988" p-id="10614"></path><path d="M665.810602 229.534896h32.281726l76.6691 32.281726 44.387373 80.704316 8.070432-8.070432h64.563452l20.176079 8.070432 8.070431 20.176079v217.901651l12.105648 12.105647 60.528236 28.246511q14.526777 42.773287-28.24651 28.24651l-44.387374-16.140863v133.16212l-8.070431 20.176079q-16.947906 12.91269-60.528237 8.070432-9.684518-17.754949-20.176079 4.035216 15.33382 75.862056-20.176078 100.880394l-64.563453 8.070431-20.176079-8.070431v-32.281726h12.105648l24.211294-8.070432 16.140863 8.070432 12.105648-28.246511-8.070432-16.140863 8.070432-24.211294-12.105648-12.105648h-153.338199q-9.684518-18.561993-48.422589-8.070431L564.930208 790.429888q8.070432 72.633884-20.176079 108.950826l-56.493021 8.070431-20.176079-28.24651 56.493021-24.211295q-7.263388-54.878934 8.070432-76.669099-60.528237 10.491561-88.774747-20.176079v-112.986042l-20.176079-4.035215Q403.521577 666.952286 355.098988 657.267768v-32.281726h12.105647l76.6691-44.387374v-209.83122l12.105647-12.105647q25.825381-18.561993 80.704315-8.070432l12.105648-12.105647 52.457805-76.6691 64.563452-32.281726z m-4.035216 16.140863l-32.281726 16.140863q-48.422589 24.211295-64.563452 80.704316v8.070431l242.112946-8.070431-24.211295-40.352158-64.563452-56.493021h-56.493021z" fill="#619FFF" p-id="10615"></path></svg>