<?xml version="1.0" standalone="no"?><!DOCTYPE svg PUBLIC "-//W3C//DTD SVG 1.1//EN" "http://www.w3.org/Graphics/SVG/1.1/DTD/svg11.dtd"><svg t="1763100246681" class="icon" viewBox="0 0 1025 1024" version="1.1" xmlns="http://www.w3.org/2000/svg" p-id="18769" xmlns:xlink="http://www.w3.org/1999/xlink" width="200.1953125" height="200"><path d="M592.896 926.72l7.168-2.048c163.84-44.032 292.864-180.224 328.704-347.136l2.048-8.192H1024l-2.048 12.288c-40.96 222.208-208.896 397.312-416.768 437.248l-12.288 2.048V926.72z" fill="#1AA6FB" p-id="18770"></path><path d="M603.136 933.888v73.728c199.68-37.888 367.616-204.8 408.576-429.056h-72.704c-34.816 165.888-161.792 309.248-335.872 355.328z m-90.112-69.632c-191.488 0-347.136-156.672-347.136-349.184s155.648-349.184 347.136-349.184S860.16 322.56 860.16 515.072 703.488 864.256 513.024 864.256z m1.024-623.616c-150.528 0-272.384 122.88-272.384 274.432S363.52 789.504 514.048 789.504s272.384-122.88 272.384-274.432c0-150.528-122.88-274.432-272.384-274.432z" fill="#1AA6FB" p-id="18771"></path><path d="M849.92 515.072c0 187.392-151.552 338.944-336.896 338.944S176.128 701.44 176.128 515.072s150.528-338.944 336.896-338.944S849.92 327.68 849.92 515.072zM514.048 231.424c-155.648 0-282.624 126.976-282.624 284.672s125.952 284.672 282.624 284.672 282.624-126.976 282.624-284.672C795.648 358.4 669.696 231.424 514.048 231.424z m416.768 220.16l-2.048-8.192c-34.816-166.912-163.84-303.104-327.68-347.136l-7.168-2.048V0l12.288 2.048c207.872 38.912 375.808 215.04 416.768 437.248l2.048 12.288h-94.208z" fill="#1AA6FB" p-id="18772"></path><path d="M939.008 441.344h72.704C970.752 217.088 802.816 50.176 603.136 12.288v73.728c174.08 47.104 301.056 190.464 335.872 355.328z m-520.192 580.608C210.944 982.016 43.008 806.912 2.048 584.704L0 572.416h93.184l2.048 8.192c34.816 166.912 163.84 303.104 328.704 347.136l7.168 2.048V1024l-12.288-2.048z" fill="#1AA6FB" p-id="18773"></path><path d="M84.992 582.656H12.288c41.984 224.256 208.896 391.168 408.576 429.056v-73.728C246.784 890.88 119.808 747.52 84.992 582.656zM0 454.656l2.048-12.288C43.008 220.16 210.944 45.056 418.816 5.12l12.288-2.048V97.28l-7.168 2.048c-163.84 45.056-292.864 181.248-328.704 347.136l-2.048 8.192H0z" fill="#1AA6FB" p-id="18774"></path><path d="M420.864 90.112V15.36C221.184 53.248 53.248 220.16 12.288 444.416h72.704c34.816-164.864 161.792-308.224 335.872-354.304z m0 0" fill="#1AA6FB" p-id="18775"></path></svg>