<?xml version="1.0" standalone="no"?><!DOCTYPE svg PUBLIC "-//W3C//DTD SVG 1.1//EN" "http://www.w3.org/Graphics/SVG/1.1/DTD/svg11.dtd"><svg t="1759210486439" class="icon" viewBox="0 0 1024 1024" version="1.1" xmlns="http://www.w3.org/2000/svg" p-id="20193" xmlns:xlink="http://www.w3.org/1999/xlink" width="200" height="200"><path d="M366.72 892.544a236.8 236.8 0 1 1 236.8-236.8 237.056 237.056 0 0 1-236.8 236.8z m0-409.6a172.8 172.8 0 1 0 172.8 172.8 173.056 173.056 0 0 0-172.8-172.8z" p-id="20194"></path><path d="M523.392 534.144a32 32 0 0 1-22.656-54.656l293.76-293.504a32 32 0 0 1 22.656-9.344 32 32 0 0 1 22.656 9.344l88.064 88.064a32 32 0 1 1-45.312 45.312l-65.408-65.408L546.048 524.8a31.872 31.872 0 0 1-22.656 9.344z" p-id="20195"></path><path d="M801.92 444.544a31.872 31.872 0 0 1-22.656-9.344l-89.6-89.6a32 32 0 0 1 45.312-45.312l89.6 89.6a32 32 0 0 1-22.656 54.656z" p-id="20196"></path></svg>