<?xml version="1.0" standalone="no"?><!DOCTYPE svg PUBLIC "-//W3C//DTD SVG 1.1//EN" "http://www.w3.org/Graphics/SVG/1.1/DTD/svg11.dtd"><svg t="1759210446517" class="icon" viewBox="0 0 1024 1024" version="1.1" xmlns="http://www.w3.org/2000/svg" p-id="18330" xmlns:xlink="http://www.w3.org/1999/xlink" width="200" height="200"><path d="M805.376 948.736h-588.8c-44.544 0-80.896-36.352-80.896-80.896V175.616c0-44.544 36.352-80.896 80.896-80.896h425.472L866.304 281.6l19.968 19.968v566.272c-0.512 45.056-36.864 80.896-80.896 80.896zM216.576 154.112C204.8 154.112 194.56 163.84 194.56 176.128v692.224c0 11.776 9.728 22.016 22.016 22.016h588.8c11.776 0 22.016-9.728 22.016-22.016V326.144l-0.512-0.512-205.824-171.52h-404.48z m424.96-58.88z" fill="" p-id="18331"></path><path d="M875.52 372.736h-211.456c-44.544 0-80.896-36.352-80.896-80.896V103.424h58.88V291.84c0 11.776 9.728 22.016 22.016 22.016H875.52v58.88zM713.216 517.632H310.784c-16.384 0-29.184-13.312-29.184-29.184 0-16.384 13.312-29.184 29.184-29.184h401.92c16.384 0 29.696 13.312 29.696 29.184s-13.312 29.184-29.184 29.184zM713.216 692.736H310.784c-16.384 0-29.184-13.312-29.184-29.696 0-16.384 13.312-29.696 29.184-29.696h401.92c16.384 0 29.696 13.312 29.696 29.696 0 16.384-13.312 29.696-29.184 29.696z" fill="" p-id="18332"></path></svg>