<?xml version="1.0" standalone="no"?><!DOCTYPE svg PUBLIC "-//W3C//DTD SVG 1.1//EN" "http://www.w3.org/Graphics/SVG/1.1/DTD/svg11.dtd"><svg t="1773216364197" class="icon" viewBox="0 0 1024 1024" version="1.1" xmlns="http://www.w3.org/2000/svg" p-id="5709" xmlns:xlink="http://www.w3.org/1999/xlink" width="200" height="200"><path d="M998.315143 383.828495c19.198368 12.798912 25.597824 38.396736 25.597824 63.930565v38.396737c0 31.99728-6.399456 51.131654-25.597824 63.930566-12.798912 12.798912-38.396736 25.597824-76.793472 25.597824h-108.790753v95.863851h-63.994561V390.227951c0-6.399456 0-12.798912 6.399456-19.198369 6.399456-6.399456 12.798912-6.399456 19.198369-6.399456h147.187489c38.396736 0 63.99456 6.399456 76.793472 19.198369z m-70.394016 134.260587c12.798912 0 25.597824 0 25.597824-6.399456 6.399456-6.399456 6.399456-12.798912 6.399456-25.597824v-38.332742c0-12.798912 0-19.198368-6.399456-19.198368-6.399456-6.399456-12.798912-6.399456-31.99728-6.399456h-108.790753v89.592385h115.190209v6.399456z m-57.595105 249.386803H959.918407a522.195613 522.195613 0 0 1-326.372258 243.05134c-140.788033 31.99728-281.576066 6.399456-403.165731-70.394016l44.796192-57.53111c198.383137 127.925126 460.760835 76.793473 595.149412-115.126214zM895.923846 166.438973c0 38.396736-25.597824 63.99456-63.99456 63.99456s-63.99456-25.597824-63.99456-63.99456 25.597824-63.99456 63.99456-63.994561 63.99456 25.597824 63.99456 63.994561zM153.586945 256.031357H70.394017A511.956484 511.956484 0 0 1 761.53527 64.047676l-44.796193 57.595104c-191.983681-102.391297-435.163011-44.796192-563.152132 134.260588z m275.17661 390.046846c-12.798912-25.597824-25.597824-51.195648-25.597824-89.592384V473.420879c0-38.396736 12.798912-63.99456 31.99728-83.192928 19.198368-19.198368 51.195648-25.597824 95.991841-25.597825h140.788033c19.198368 0 31.99728 12.798912 31.99728 31.997281v25.597824H524.755396c-19.198368 0-38.396736 6.399456-44.796193 12.798912-6.399456 6.399456-12.798912 19.198368-12.798912 38.396736v76.729478c0 19.198368 6.399456 31.99728 12.798912 44.796193 6.399456 6.399456 25.597824 12.798912 44.796193 12.798912h140.788033c12.798912 0 19.198368 0 25.597824 6.399456 6.399456 6.335461 6.399456 12.734918 6.399456 25.533829v25.597824l-172.785313 6.399457c-44.796192 0-70.394017-6.399456-95.991841-25.597825zM51.195648 364.630126c12.798912 0 31.99728 6.399456 38.396737 19.198369l95.99184 185.456236 89.592385-185.456236c6.399456-12.798912 19.198368-19.198368 38.396736-19.198369h25.597824c6.399456 0 12.798912 0 19.198369 6.399456v294.182995h-63.994561V460.557973L223.980962 620.416385c-12.798912 12.798912-19.198368 19.198368-38.396737 19.198368h-6.399456c-19.198368 0-31.99728-6.399456-38.396736-19.198368L63.99456 466.957429v204.590609H0V390.227951c0-6.399456 0-12.798912 6.399456-19.198369 6.399456-6.399456 12.798912-6.399456 19.198368-6.399456h25.597824z m179.18477 466.840319c0 25.597824-12.798912 44.796192-31.997281 57.53111-19.198368 12.798912-44.796192 12.798912-63.99456 0-19.198368-12.798912-31.99728-31.99728-31.99728-57.595105 0-38.332742 25.597824-63.930566 63.99456-63.930565s63.99456 25.597824 63.994561 63.99456z" p-id="5710"></path></svg>