<?xml version="1.0" standalone="no"?><!DOCTYPE svg PUBLIC "-//W3C//DTD SVG 1.1//EN" "http://www.w3.org/Graphics/SVG/1.1/DTD/svg11.dtd"><svg t="1766415084633" class="icon" viewBox="0 0 1024 1024" version="1.1" xmlns="http://www.w3.org/2000/svg" p-id="8440" xmlns:xlink="http://www.w3.org/1999/xlink" width="200" height="200"><path d="M509.952 161.512727c148.945455-82.850909 300.730182-91.229091 371.479273-20.945454s62.324364 221.509818-20.526546 370.501818h-0.465454a429.335273 429.335273 0 0 1 65.163636 284.392727 168.727273 168.727273 0 0 1-44.683636 85.643637 173.754182 173.754182 0 0 1-86.109091 44.683636 435.665455 435.665455 0 0 1-285.277091-65.675636 430.731636 430.731636 0 0 1-282.530909 63.813818 172.218182 172.218182 0 0 1-86.109091-44.683637c-70.283636-69.818182-62.370909-220.206545 19.502545-368.174545-81.966545-148.48-89.786182-298.309818-19.502545-368.686546s220.625455-62.324364 369.058909 19.130182z m291.886545 440.785455a901.818182 901.818182 0 0 1-92.16 106.589091 934.027636 934.027636 0 0 1-108.916363 93.602909 586.891636 586.891636 0 0 0 58.600727 21.410909c74.938182 22.341818 127.069091 19.502545 155.508364-8.843636l-0.465455 0.884363c28.811636-28.392727 31.697455-80.523636 8.843637-155.508363a546.443636 546.443636 0 0 0-21.41091-58.135273z m-582.74909-0.465455a539.927273 539.927273 0 0 0-20.433455 55.854546c-22.295273 75.357091-19.549091 127.022545 8.797091 155.368727s80.151273 31.697455 155.508364 8.936727h-0.558546a539.927273 539.927273 0 0 0 55.854546-20.526545 967.400727 967.400727 0 0 1-199.214546-199.726546z m290.90909-332.753454a851.781818 851.781818 0 0 0-131.258181 108.404363 823.296 823.296 0 0 0-109.847273 133.12 823.854545 823.854545 0 0 0 109.847273 133.12v-0.884363a852.293818 852.293818 0 0 0 131.211636 108.357818 846.754909 846.754909 0 0 0 133.538909-109.800727 856.436364 856.436364 0 0 0 108.962909-131.258182 852.852364 852.852364 0 0 0-108.962909-131.211637 829.998545 829.998545 0 0 0-133.538909-109.847272zM503.994182 418.909091a94.347636 94.347636 0 1 1-35.84 10.705454 92.811636 92.811636 0 0 1 35.84-10.705454z m310.877091-212.340364c-28.253091-28.299636-80.151273-31.557818-155.508364-8.750545a591.592727 591.592727 0 0 0-58.600727 21.876363 933.794909 933.794909 0 0 1 108.869818 93.556364 947.060364 947.060364 0 0 1 92.718545 107.054546 545.326545 545.326545 0 0 0 21.41091-58.181819q33.559273-113.058909-8.843637-155.508363zM363.054545 199.68c-74.938182-22.295273-127.069091-19.549091-155.508363 8.843636v-0.465454c-28.997818 28.392727-31.744 80.523636-8.936727 155.508363a507.345455 507.345455 0 0 0 20.433454 56.273455A976.663273 976.663273 0 0 1 418.909091 220.206545a541.230545 541.230545 0 0 0-55.854546-20.526545z m0 0" fill="#696F85" p-id="8441"></path></svg>