<?xml version="1.0" standalone="no"?><!DOCTYPE svg PUBLIC "-//W3C//DTD SVG 1.1//EN" "http://www.w3.org/Graphics/SVG/1.1/DTD/svg11.dtd"><svg t="1762569064596" class="icon" viewBox="0 0 1024 1024" version="1.1" xmlns="http://www.w3.org/2000/svg" p-id="8409" xmlns:xlink="http://www.w3.org/1999/xlink" width="200" height="200"><path d="M754.602667 467.925333a376.32 376.32 0 0 0-8.874667-48.810666 256.213333 256.213333 0 0 0-98.773333-138.709334 342.272 342.272 0 0 0-203.050667-66.56c-16.64 0-33.28 1.109333-48.810667 3.328-31.104 3.328-61.013333 11.093333-89.898666 23.296a298.666667 298.666667 0 0 0-123.178667 92.074667 244.906667 244.906667 0 0 0-11.093333 291.84c14.421333 21.12 31.061333 39.978667 49.92 55.466667 2.218667 2.261333 3.328 4.48 3.328 6.698666-1.109333 8.874667-3.328 17.749333-5.546667 26.624-3.328 11.093333-5.546667 23.296-5.546667 35.498667 0 7.765333 2.218667 15.530667 6.656 23.296 12.202667 22.186667 41.088 28.885333 62.165334 16.64 21.077333-12.16 42.154667-25.514667 63.232-37.717333a13.141333 13.141333 0 0 1 11.093333-1.109334c24.448 5.546667 49.92 9.984 75.477333 9.984a333.098667 333.098667 0 0 0 80.981334-6.656c13.354667-3.328 26.666667-6.656 41.088-9.984l-27.733334-39.936h-2.218666c-18.901333 3.328-37.76 8.874667-57.728 9.984a314.325333 314.325333 0 0 1-119.850667-13.312 10.794667 10.794667 0 0 0-9.984 1.109334c-18.858667 11.093333-37.717333 22.186667-56.576 34.389333-7.765333 4.437333-14.421333 8.874667-23.296 13.312 1.109333-4.437333 1.109333-7.765333 1.109333-9.984 4.437333-23.296 8.874667-45.482667 14.421334-68.778667 1.109333-3.328 0-6.656-3.328-7.765333a263.765333 263.765333 0 0 1-48.853334-44.373333 195.626667 195.626667 0 0 1-46.592-162.048 200.533333 200.533333 0 0 1 55.466667-109.866667A266.624 266.624 0 0 1 318.506667 283.733333a343.594667 343.594667 0 0 1 93.226666-21.077333 415.573333 415.573333 0 0 1 64.341334 1.109333c22.186667 1.109333 44.373333 6.656 65.493333 14.421334 45.482667 15.530667 86.528 42.154667 117.589333 78.805333 22.186667 24.405333 36.650667 54.357333 44.373334 86.528 3.370667 13.312 4.48 27.733333 6.698666 41.045333l45.482667 6.698667c0-7.808 0-15.573333-1.109333-23.338667z" fill="#007AFF" p-id="8410"></path><path d="M605.909333 729.813333a42.154667 42.154667 0 0 1-42.154666-42.154666c0-18.858667 13.312-35.498667 31.061333-41.045334 8.874667-2.218667 18.858667-3.328 28.842667-6.656a197.034667 197.034667 0 0 0 49.92-31.104c1.152-1.109333 3.370667-2.218667 5.546666-3.328 3.370667-1.109333 6.698667-1.109333 10.026667-2.218666 0 3.328 0 6.656-1.109333 9.984a92.586667 92.586667 0 0 1-8.874667 13.312c-12.202667 15.573333-22.186667 33.28-27.733333 53.290666-2.261333 5.546667-2.261333 12.202667-3.370667 18.858667-6.656 17.749333-23.296 31.061333-42.154667 31.061333z" fill="#FCD514" p-id="8411"></path><path d="M726.869333 850.773333c-22.186667 0-42.154667-17.749333-42.154666-39.936-2.218667-17.749333-9.984-34.389333-19.968-48.853333-5.546667-7.765333-12.245333-15.530667-17.792-24.405333-2.218667-3.328-3.328-7.765333-2.218667-11.093334 3.328-4.437333 8.874667-1.109333 12.202667 2.218667 12.245333 7.765333 24.448 16.64 37.76 24.405333 12.202667 7.765333 25.514667 12.202667 39.936 14.421334a40.661333 40.661333 0 0 1 35.498666 39.978666c0 19.968-12.202667 37.717333-32.170666 42.154667-4.437333 1.109333-7.765333 1.109333-11.093334 1.109333z" fill="#FF6702" p-id="8412"></path><path d="M892.202667 685.44a45.397333 45.397333 0 0 1-41.045334 43.264 92.330667 92.330667 0 0 0-43.264 17.749333c-11.093333 6.656-21.12 14.421333-31.104 22.186667-1.109333 1.109333-2.218667 2.218667-3.328 2.218667-2.218667 1.109333-4.437333 0-6.656 0-1.109333-2.218667-2.218667-4.437333-1.109333-6.656 2.218667-5.546667 5.546667-9.984 8.874667-14.421334 13.312-16.64 23.296-35.498667 29.994666-56.576 2.218667-6.656 2.218667-14.421333 4.437334-21.077333a41.685333 41.685333 0 0 1 46.592-28.842667c18.858667 3.328 33.28 17.749333 35.498666 36.608 0 2.218667 1.109333 4.437333 1.109334 5.546667z" fill="#0087FA" p-id="8413"></path><path d="M683.605333 564.48c0-22.186667 16.64-39.936 38.826667-42.154667 22.186667-2.218667 42.154667 12.202667 45.482667 34.389334 4.437333 26.624 16.64 52.138667 35.541333 72.106666 3.328 4.48 5.546667 7.808 7.765333 12.245334 1.109333 2.218667 1.109333 4.437333-1.109333 6.656a3.413333 3.413333 0 0 1-4.437333 0 29.098667 29.098667 0 0 1-10.026667-5.546667 191.061333 191.061333 0 0 0-52.138667-31.104c-7.765333-2.218667-16.64-4.437333-25.514666-6.656-21.077333-2.218667-34.389333-19.968-34.389334-39.936z" fill="#2AC402" p-id="8414"></path></svg>