<?xml version="1.0" standalone="no"?><!DOCTYPE svg PUBLIC "-//W3C//DTD SVG 1.1//EN" "http://www.w3.org/Graphics/SVG/1.1/DTD/svg11.dtd"><svg t="1784537167401" class="icon" viewBox="0 0 1024 1024" version="1.1" xmlns="http://www.w3.org/2000/svg" p-id="7152" xmlns:xlink="http://www.w3.org/1999/xlink" width="200" height="200"><path d="M913.2544 169.472H275.6096c-58.88 0-106.4448 47.616-106.4448 106.496v637.5936c0 58.88 47.616 106.4448 106.496 106.4448h637.5936c58.88 0 106.4448-47.616 106.4448-106.496V275.456c0-58.368-47.616-105.9328-106.4448-105.9328z m45.568 736.9216c0 28.672-23.552 52.224-52.224 52.224H282.2656c-28.672 0-52.224-23.552-52.224-52.224V282.0608c0-28.672 23.552-52.224 52.224-52.224h624.3328c28.672 0 52.224 23.552 52.224 52.224v624.3328zM197.8368 789.7088h-84.48c-28.6208 0-52.1728-23.552-52.1728-52.224V113.2544c0-28.672 23.552-52.224 52.224-52.224h624.3328c28.672 0 52.224 23.552 52.224 52.224V192.512l60.8768 1.536v-87.04c0-58.8288-47.616-106.3936-106.496-106.3936H106.8032C47.872 0.6144 0.256 48.2304 0.256 106.496v637.6448c0 58.8288 47.616 106.4448 106.496 106.4448h92.6208l-1.536-60.928z m635.5968-289.6384c12.288 10.752 13.312 29.696 2.56 41.984a29.184 29.184 0 0 1-21.504 9.728H374.8864a29.696 29.696 0 0 1 0-59.392h366.9504l-76.288-76.8a29.7984 29.7984 0 0 1 0-41.9328c11.776-11.776 30.72-11.776 41.984 0l125.9008 126.4128z m-479.0272 188.3136a29.8496 29.8496 0 0 1-1.536-41.984 28.672 28.672 0 0 1 21.504-9.216h438.5792a29.696 29.696 0 0 1 0 59.392H446.5664l76.2368 76.8c11.776 11.776 11.264 30.6688 0 41.9328-11.776 11.776-30.72 11.776-41.984 0l-126.4128-126.9248z" fill="#2C2C2C" p-id="7153"></path></svg>