<?xml version="1.0" standalone="no"?><!DOCTYPE svg PUBLIC "-//W3C//DTD SVG 1.1//EN" "http://www.w3.org/Graphics/SVG/1.1/DTD/svg11.dtd"><svg t="1763099931443" class="icon" viewBox="0 0 1024 1024" version="1.1" xmlns="http://www.w3.org/2000/svg" p-id="4151" xmlns:xlink="http://www.w3.org/1999/xlink" width="200" height="200"><path d="M425.685333 553.258667c23.466667 0 42.496 19.029333 42.496 42.496v255.146666c0 23.509333-19.029333 42.538667-42.496 42.538667h-255.146666A42.538667 42.538667 0 0 1 128 850.944v-255.146667c0-23.509333 19.029333-42.538667 42.538667-42.538666h255.146666z m379.306667 42.496L896 702.293333v1.706667h-60.16c0 99.669333-77.269333 180.394667-173.482667 180.394667h-24.064v-73.856h24.064c58.410667 0 104.789333-48.128 104.789334-108.245334h-53.248l91.050666-106.538666z m-421.845333 42.538666H213.034667v170.112H383.146667V638.293333zM850.944 128c23.466667 0 42.496 19.029333 42.496 42.538667v255.146666c0 23.466667-19.029333 42.496-42.496 42.496h-255.146667a42.538667 42.538667 0 0 1-42.538666-42.496v-255.146666c0-23.466667 19.029333-42.538667 42.496-42.538667h255.146666zM385.706667 128v72.149333h-24.021334c-58.453333 0-104.832 48.128-104.832 108.245334h53.290667L219.008 414.933333 128 308.394667h60.16C188.16 208.810667 265.386667 128 361.6 128h24.064z m422.698666 85.034667H638.293333V383.146667h170.112V213.034667z" fill="#3570FF" p-id="4152"></path></svg>