<?xml version="1.0" standalone="no"?><!DOCTYPE svg PUBLIC "-//W3C//DTD SVG 1.1//EN" "http://www.w3.org/Graphics/SVG/1.1/DTD/svg11.dtd"><svg t="1769942309204" class="icon" viewBox="0 0 1024 1024" version="1.1" xmlns="http://www.w3.org/2000/svg" p-id="24226" xmlns:xlink="http://www.w3.org/1999/xlink" width="200" height="200"><path d="M787 402a110.1 110.1 0 0 0-104 74H132a4 4 0 0 0-4 4v64a4 4 0 0 0 4 4h551a110 110 0 1 0 104-146z m0 148a38 38 0 1 1 38-38 38 38 0 0 1-38 38zM132 388h325.5l131-65.5A110 110 0 1 0 549 238a112.5 112.5 0 0 0 2.3 22.6L440.5 316H132a4 4 0 0 0-4 4v64a4 4 0 0 0 4 4z m527-188a38 38 0 1 1-38 38 38 38 0 0 1 38-38z m0 476a109.9 109.9 0 0 0-70.5 25.5l-131-65.5H132a4 4 0 0 0-4 4v64a4 4 0 0 0 4 4h308.5l110.8 55.4A112.5 112.5 0 0 0 549 786a110 110 0 1 0 110-110z m0 148a38 38 0 1 1 38-38 38 38 0 0 1-38 38z" p-id="24227"></path></svg>