<?xml version="1.0" standalone="no"?><!DOCTYPE svg PUBLIC "-//W3C//DTD SVG 1.1//EN" "http://www.w3.org/Graphics/SVG/1.1/DTD/svg11.dtd"><svg t="1759210376500" class="icon" viewBox="0 0 1024 1024" version="1.1" xmlns="http://www.w3.org/2000/svg" p-id="16283" xmlns:xlink="http://www.w3.org/1999/xlink" width="200" height="200"><path d="M511.512381 395.459048C419.352381 395.459048 345.234286 320.853333 345.234286 229.180952s74.605714-166.278095 166.278095-166.278095S677.790476 137.508571 677.790476 229.180952s-74.605714 166.278095-166.278095 166.278096z m0-64.853334c36.08381 0 69.729524-19.504762 87.771429-50.712381 18.041905-31.207619 18.041905-70.217143 0-101.424762s-51.687619-50.712381-87.771429-50.712381c-56.07619 0-101.424762 45.348571-101.424762 101.424762s45.348571 101.424762 101.424762 101.424762zM859.184762 960.609524c-77.04381 0-139.459048-62.415238-139.459048-139.459048s62.415238-139.459048 139.459048-139.459047 139.459048 62.415238 139.459048 139.459047c0 37.059048-14.628571 72.655238-40.96 98.499048-26.331429 26.331429-61.44 40.96-98.499048 40.96z m0-64.853334c26.819048 0 51.2-14.140952 64.365714-37.059047 13.165714-22.918095 13.165714-51.2 0-74.605714-13.165714-22.918095-38.034286-37.059048-64.365714-37.059048-40.96 0-74.605714 33.158095-74.605714 74.605714 0 40.96 33.158095 74.118095 74.605714 74.118095zM511.512381 960.609524c-77.04381 0-139.459048-62.415238-139.459048-139.459048s62.415238-139.459048 139.459048-139.459047 139.459048 62.415238 139.459048 139.459047c0 37.059048-14.628571 72.655238-40.96 98.499048-26.331429 26.331429-61.927619 40.96-98.499048 40.96z m0-64.853334c26.819048 0 51.2-14.140952 64.365714-37.059047 13.165714-22.918095 13.165714-51.2 0-74.605714-13.165714-22.918095-38.034286-37.059048-64.365714-37.059048-40.96 0-74.605714 33.158095-74.605714 74.605714 0 40.96 33.158095 74.118095 74.605714 74.118095zM163.352381 960.609524C86.308571 960.609524 24.380952 898.194286 24.380952 821.150476s62.415238-139.459048 139.459048-139.459047 139.459048 62.415238 139.459048 139.459047c0 37.059048-14.628571 72.655238-40.96 98.499048-26.331429 26.331429-61.927619 40.96-98.986667 40.96z m0-64.853334c26.819048 0 51.2-14.140952 64.365714-37.059047 13.165714-22.918095 13.165714-51.2 0-74.605714-13.165714-22.918095-38.034286-37.059048-64.365714-37.059048-40.96 0-74.605714 33.158095-74.605714 74.605714 0.487619 40.96 33.645714 74.118095 74.605714 74.118095z m0 0" p-id="16284"></path><path d="M478.841905 372.540952h64.853333v346.697143H478.841905z" p-id="16285"></path><path d="M196.022857 714.361905H131.169524v-136.533334c0-36.08381 29.257143-64.853333 64.853333-64.853333h630.491429c17.066667 0 33.645714 6.826667 45.83619 19.017143s19.017143 28.769524 19.017143 45.83619v136.533334h-64.853333v-136.533334H196.022857v136.533334z m0 0" p-id="16286"></path></svg>