<?xml version="1.0" standalone="no"?><!DOCTYPE svg PUBLIC "-//W3C//DTD SVG 1.1//EN" "http://www.w3.org/Graphics/SVG/1.1/DTD/svg11.dtd"><svg t="1763127123689" class="icon" viewBox="0 0 1024 1024" version="1.1" xmlns="http://www.w3.org/2000/svg" p-id="29504" xmlns:xlink="http://www.w3.org/1999/xlink" width="200" height="200"><path d="M225.28 102.4h573.44c45.056 0 81.92 36.864 81.92 81.92v81.92c0 45.056-36.864 81.92-81.92 81.92H225.28c-45.056 0-81.92-36.864-81.92-81.92V184.32c0-45.056 36.864-81.92 81.92-81.92z m245.76 81.92c-22.528 0-40.96 18.432-40.96 40.96s18.432 40.96 40.96 40.96h204.8c22.528 0 40.96-18.432 40.96-40.96s-18.432-40.96-40.96-40.96H471.04z m-163.84 81.92c22.528 0 40.96-18.432 40.96-40.96s-18.432-40.96-40.96-40.96-40.96 18.432-40.96 40.96 18.432 40.96 40.96 40.96z" fill="#304ECE" opacity=".3" p-id="29505"></path><path d="M225.28 389.12h573.44c45.056 0 81.92 36.864 81.92 81.92v81.92c0 45.056-36.864 81.92-81.92 81.92H225.28c-45.056 0-81.92-36.864-81.92-81.92v-81.92c0-45.056 36.864-81.92 81.92-81.92z m245.76 81.92c-22.528 0-40.96 18.432-40.96 40.96s18.432 40.96 40.96 40.96h204.8c22.528 0 40.96-18.432 40.96-40.96s-18.432-40.96-40.96-40.96H471.04z m-163.84 81.92c22.528 0 40.96-18.432 40.96-40.96s-18.432-40.96-40.96-40.96-40.96 18.432-40.96 40.96 18.432 40.96 40.96 40.96zM225.28 675.84h573.44c45.056 0 81.92 36.864 81.92 81.92v81.92c0 45.056-36.864 81.92-81.92 81.92H225.28c-45.056 0-81.92-36.864-81.92-81.92v-81.92c0-45.056 36.864-81.92 81.92-81.92z m245.76 81.92c-22.528 0-40.96 18.432-40.96 40.96s18.432 40.96 40.96 40.96h204.8c22.528 0 40.96-18.432 40.96-40.96s-18.432-40.96-40.96-40.96H471.04z m-163.84 81.92c22.528 0 40.96-18.432 40.96-40.96s-18.432-40.96-40.96-40.96-40.96 18.432-40.96 40.96 18.432 40.96 40.96 40.96z" fill="#304ECE" p-id="29506"></path></svg>