<?xml version="1.0" standalone="no"?><!DOCTYPE svg PUBLIC "-//W3C//DTD SVG 1.1//EN" "http://www.w3.org/Graphics/SVG/1.1/DTD/svg11.dtd"><svg t="1769942103011" class="icon" viewBox="0 0 1024 1024" version="1.1" xmlns="http://www.w3.org/2000/svg" p-id="9990" xmlns:xlink="http://www.w3.org/1999/xlink" width="200" height="200"><path d="M896 577.664H384a64 64 0 0 0-64 64v190.592a64 64 0 0 0 64 64h512a64 64 0 0 0 64-64v-190.592a64 64 0 0 0-64-64z m0 222.528a32 32 0 0 1-32 32h-448a32 32 0 0 1-32-32v-126.592a32 32 0 0 1 32-32h448a32 32 0 0 1 32 32v126.592z" fill="" p-id="9991"></path><path d="M735.424 703.616h-62.72a32.64 32.64 0 1 0 0 65.28h62.72a32.64 32.64 0 1 0 0-65.28zM355.392 298.176a228.16 228.16 0 0 1 192-105.408c103.616 0 190.336 69.696 218.304 164.352 5.696 19.2 9.728 42.496 10.112 63.424 4.608 0.32 9.28 3.072 13.696 3.904a133.248 133.248 0 0 1 97.408 74.88 32.384 32.384 0 0 0 57.536-29.056c-0.064-0.128 0.064 0.128 0 0-0.768-1.856-2.048-3.584-3.136-5.248a196.352 196.352 0 0 0-105.472-94.656c-24.32-137.6-144-242.624-288.448-242.624-114.752 0-213.248 66.816-261.504 163.008C162.688 296.512 64 397.696 64 522.24c0 93.952 61.952 174.016 145.088 210.368a60.8 60.8 0 0 0 6.592 2.944c0.896 0.384-0.896-0.384 0 0 2.368 0.576 5.696 1.408 8.256 1.408a30.848 30.848 0 1 0 10.752-59.904v-0.064a167.36 167.36 0 0 1-105.728-154.688c0-80.128 56.64-147.2 131.968-163.584 11.52-2.496 23.424-4.032 35.648-4.032 11.072 0 21.824 1.216 32.256 3.264 6.208-21.312 14.848-41.536 26.56-59.776z" fill="" p-id="9992"></path></svg>