<?xml version="1.0" standalone="no"?><!DOCTYPE svg PUBLIC "-//W3C//DTD SVG 1.1//EN" "http://www.w3.org/Graphics/SVG/1.1/DTD/svg11.dtd"><svg t="1759210761758" class="icon" viewBox="0 0 1024 1024" version="1.1" xmlns="http://www.w3.org/2000/svg" p-id="27561" xmlns:xlink="http://www.w3.org/1999/xlink" width="200" height="200"><path d="M848.7 516.4c0-41.9 18.1-79.5 47-105.6 13.4-12.1 16.9-32.1 7.7-47.9L839 250.7c-8.9-15.4-27-22.4-43.7-17.1-13.8 4.4-28.6 6.8-44 6.8-68.5 0-125.8-48.2-139.7-112.4-3.8-17.5-19-29.9-36.5-29.9H447.4c-17.5 0-32.7 12.4-36.5 29.9-13.7 64.2-71.1 112.4-139.7 112.4-15.3 0-30-2.4-44-6.8-16.7-5.4-34.8 1.7-43.7 17.1L119.3 363c-9.1 15.8-5.7 35.9 7.7 47.9 28.9 26 47 63.6 47 105.6s-18.1 79.5-47 105.6c-13.4 12.1-16.9 32.1-7.7 47.9l64.4 112.3c8.9 15.4 27 22.4 43.7 17.1 13.8-4.4 28.6-6.8 44-6.8 68.5 0 125.8 48.2 139.7 112.4 3.8 17.5 19 29.9 36.5 29.9h127.9c17.5 0 32.7-12.4 36.5-29.9 13.7-64.2 71.1-112.4 139.7-112.4 15.3 0 30 2.4 44 6.8 16.7 5.4 34.8-1.7 43.7-17.1L903.7 670c9.1-15.8 5.7-35.9-7.7-47.9-29.1-26.2-47.3-63.9-47.3-105.7z m-52 221.4c-14.8-3.5-30-5.2-45.2-5.2-27 0-53.1 5.3-77.9 15.7-24 10.1-45.4 24.6-63.9 43-18.6 18.5-33.2 40.2-43.5 64.2-2.7 6.3-5.1 12.8-7.1 19.5h-95.4c-2-6.6-4.4-13.1-7.1-19.5-10.2-24.1-24.9-45.7-43.5-64.2-18.5-18.4-40-32.8-63.9-43-24.8-10.4-51-15.7-77.9-15.7-15.2 0-30.4 1.8-45.2 5.2l-47.9-83.3c9.8-10.6 18.6-22.1 25.9-34.6 18.5-31.2 28.3-67 28.3-103.4s-9.8-72.2-28.3-103.4c-7.4-12.4-16.1-24.1-25.9-34.6L226 295c14.8 3.5 30 5.2 45.2 5.2 27 0 53.1-5.3 77.9-15.7 24-10.1 45.4-24.6 63.9-43 18.6-18.5 33.2-40.2 43.5-64.2 2.7-6.3 5.1-12.8 7.1-19.5H559c2 6.6 4.4 13.1 7.1 19.5 10.2 24.1 24.9 45.7 43.5 64.2 18.5 18.4 40 32.8 63.9 43 24.8 10.4 51 15.7 77.9 15.7 15.2 0 30.4-1.8 45.2-5.2l47.8 83.3c-9.8 10.6-18.6 22.1-25.9 34.6-18.5 31.2-28.3 67-28.3 103.4s9.8 72.2 28.3 103.4c7.4 12.4 16.1 24.1 25.9 34.6l-47.7 83.5z" p-id="27562"></path><path d="M511.4 337.1c-96.9 0-175.3 80.2-175.3 179.3s78.5 179.3 175.3 179.3 175.3-80.2 175.3-179.3-78.5-179.3-175.3-179.3z m82.5 263.8c-22 22.5-51.5 35-82.8 35s-60.5-12.4-82.8-35c-22-22.5-34.3-52.5-34.3-84.5s12.1-61.9 34.3-84.5c22-22.5 51.5-35 82.8-35s60.5 12.4 82.8 35c22 22.5 34.3 52.5 34.3 84.5s-12 61.9-34.3 84.5z" p-id="27563"></path></svg>