<?xml version="1.0" standalone="no"?><!DOCTYPE svg PUBLIC "-//W3C//DTD SVG 1.1//EN" "http://www.w3.org/Graphics/SVG/1.1/DTD/svg11.dtd"><svg t="1784537040051" class="icon" viewBox="0 0 1024 1024" version="1.1" xmlns="http://www.w3.org/2000/svg" p-id="1665" xmlns:xlink="http://www.w3.org/1999/xlink" width="200" height="200"><path d="M512 981.333333C252.8 981.333333 42.666667 771.2 42.666667 512S252.8 42.666667 512 42.666667s469.333333 210.133333 469.333333 469.333333-210.133333 469.333333-469.333333 469.333333z m0-85.333333c212.074667 0 384-171.925333 384-384S724.074667 128 512 128 128 299.925333 128 512s171.925333 384 384 384z m-33.472-640a42.666667 42.666667 0 0 0-85.333333 0v10.88H384a42.666667 42.666667 0 1 0 0 85.333333h9.386667l1.194666 278.485334H384a42.666667 42.666667 0 1 0 0 85.333333h10.773333V725.333333a42.666667 42.666667 0 1 0 85.333334 0v-9.301333h18.389333V725.333333a42.666667 42.666667 0 0 0 85.333333 0v-9.6c35.221333-1.92 66.410667-13.162667 89.621334-34.304 31.317333-28.010667 40.021333-66.282667 40.021333-99.818666 0-45.973333-16.981333-82.368-46.976-105.664 13.781333-20.906667 21.056-46.656 21.056-76.224 0-37.248-11.52-68.437333-33.088-91.52-15.36-16.426667-35.093333-28.032-57.728-34.986667-4.224-1.493333-8.533333-2.837333-12.906667-3.989333V256a42.666667 42.666667 0 1 0-85.333333 0v9.045333l-19.968 0.576V256z m1.578667 277.034667l92.16 1.088h0.512c21.056 0 33.898667 4.736 41.408 11.413333 8.362667 7.445333 13.952 19.136 13.952 36.074667 0 21.653333-6.549333 31.530667-11.861334 36.48-8.064 7.04-23.552 12.586667-43.498666 12.586666h-92.672v-97.642666z m60.266666-85.824h-60.629333l-0.853333-96.213334 60.032-1.749333 18.346666 2.453333c4.672 0.64 8.810667 1.493333 12.458667 2.496 6.634667 2.56 12.458667 5.994667 17.429333 10.069334 9.28 7.616 15.061333 19.157333 15.061334 35.456 0 16.298667-5.781333 27.818667-15.061334 35.434666-8.682667 7.125333-23.402667 12.053333-46.784 12.053334z" fill="#697177" p-id="1666"></path></svg>