<?xml version="1.0" standalone="no"?><!DOCTYPE svg PUBLIC "-//W3C//DTD SVG 1.1//EN" "http://www.w3.org/Graphics/SVG/1.1/DTD/svg11.dtd"><svg t="1784537225153" class="icon" viewBox="0 0 1024 1024" version="1.1" xmlns="http://www.w3.org/2000/svg" p-id="9458" xmlns:xlink="http://www.w3.org/1999/xlink" width="200" height="200"><path d="M919.552 579.584c-18.944 0-34.304 15.36-34.304 33.792 0 18.944 15.36 33.792 34.304 33.792s34.304-15.36 34.304-33.792c-0.512-18.432-15.872-33.792-34.304-33.792zM857.088 719.36c-18.944 0-34.304 15.36-34.304 33.792 0 18.944 15.36 33.792 34.304 33.792s34.304-15.36 34.304-33.792c0-18.432-15.36-33.792-34.304-33.792z m34.304-276.48c0 18.944 15.36 33.792 34.304 33.792S960 461.312 960 442.88s-15.36-33.792-34.304-33.792c-18.944-0.512-34.304 14.848-34.304 33.792zM614.4 883.712c-19.456 0-34.816 15.36-34.816 34.304s15.872 34.304 34.816 34.304c19.456 0 34.816-15.36 34.816-34.304s-15.872-34.304-34.816-34.304z m139.264-62.464c-18.944 0-34.304 15.872-34.304 34.816 0 19.456 15.36 34.816 34.304 34.816s34.304-15.872 34.304-34.816c0-18.944-15.36-34.816-34.304-34.816zM512 896c-51.712 0-102.4-10.24-149.504-30.208-45.568-19.456-87.04-47.104-121.856-82.432a385.587 385.587 0 0 1-82.432-121.856C138.24 614.4 128 563.712 128 512s10.24-102.4 30.208-149.504c19.456-45.568 47.104-87.04 82.432-121.856 35.328-35.328 76.288-62.976 121.856-82.432C409.6 138.24 460.288 128 512 128s102.4 10.24 149.504 30.208c45.568 19.456 87.04 47.104 121.856 82.432 35.328 35.328 62.976 76.288 82.432 121.856l1.536 3.072 59.392-24.576C859.648 178.176 699.392 63.488 512.512 63.488c-247.296 0-448 200.704-448 448s200.704 448 448 448V896z" fill="#757575" p-id="9459"></path><path d="M333.312 346.624H683.52v63.488H333.312z m0 133.632H683.52v63.488H333.312z m0 138.24H683.52v63.488H333.312z" fill="#757575" p-id="9460"></path></svg>