<?xml version="1.0" standalone="no"?><!DOCTYPE svg PUBLIC "-//W3C//DTD SVG 1.1//EN" "http://www.w3.org/Graphics/SVG/1.1/DTD/svg11.dtd"><svg t="1784820009581" class="icon" viewBox="0 0 1024 1024" version="1.1" xmlns="http://www.w3.org/2000/svg" p-id="7664" xmlns:xlink="http://www.w3.org/1999/xlink" width="200" height="200"><path d="M506.507636 170.046061a217.212121 217.212121 0 1 0 0 434.424242 217.212121 217.212121 0 0 0 0-434.424242z m-279.272727 217.212121a279.272727 279.272727 0 1 1 558.545455 0 279.272727 279.272727 0 0 1-558.545455 0z" fill="#303133" p-id="7665"></path><path d="M506.507636 666.530909a403.549091 403.549091 0 0 0-349.401212 201.69697 31.030303 31.030303 0 0 1-53.744485-31.061334 465.609697 465.609697 0 0 1 806.322425 0 31.030303 31.030303 0 1 1-53.744485 31.030303 403.549091 403.549091 0 0 0-349.401212-201.665939z" fill="#303133" p-id="7666"></path></svg>