<?xml version="1.0" standalone="no"?><!DOCTYPE svg PUBLIC "-//W3C//DTD SVG 1.1//EN" "http://www.w3.org/Graphics/SVG/1.1/DTD/svg11.dtd"><svg t="1759210604683" class="icon" viewBox="0 0 1024 1024" version="1.1" xmlns="http://www.w3.org/2000/svg" p-id="24119" xmlns:xlink="http://www.w3.org/1999/xlink" width="200" height="200"><path d="M729.6 560c-80 0-147.2-64-147.2-147.2s64-147.2 147.2-147.2 147.2 64 147.2 147.2-67.2 147.2-147.2 147.2z m0-230.4c-44.8 0-83.2 35.2-83.2 83.2s35.2 83.2 83.2 83.2 83.2-35.2 83.2-83.2-38.4-83.2-83.2-83.2zM947.2 889.6h-134.4c-19.2 0-32-12.8-32-32s12.8-32 32-32h131.2c-3.2-70.4-73.6-172.8-176-172.8h-12.8c-19.2 0-32-12.8-32-32s12.8-32 32-32h12.8c147.2 0 240 144 240 240 0 35.2-28.8 60.8-60.8 60.8z" p-id="24120"></path><path d="M377.6 499.2C275.2 499.2 192 416 192 316.8s83.2-182.4 182.4-182.4 182.4 83.2 182.4 182.4-80 182.4-179.2 182.4z m0-300.8C310.4 198.4 256 249.6 256 316.8s54.4 118.4 118.4 118.4 118.4-54.4 118.4-118.4-51.2-118.4-115.2-118.4zM665.6 889.6H86.4c-38.4 0-70.4-32-70.4-70.4 0-124.8 121.6-307.2 307.2-307.2h99.2c188.8 0 307.2 182.4 307.2 307.2 6.4 38.4-25.6 70.4-64 70.4zM326.4 576c-147.2 0-243.2 147.2-243.2 243.2 0 3.2 3.2 6.4 6.4 6.4h579.2c3.2 0 6.4-3.2 6.4-6.4 0-96-96-243.2-243.2-243.2h-105.6z" p-id="24121"></path></svg>